<?xml version="1.0" encoding="UTF-8" standalone="no"?>
<!-- Created with Inkscape (http://www.inkscape.org/) -->

<svg
   width="609.57965"
   height="583.30951"
   viewBox="0 0 161.28461 154.33398"
   version="1.1"
   id="svg1"
   xml:space="preserve"
   xmlns="http://www.w3.org/2000/svg"
   xmlns:svg="http://www.w3.org/2000/svg"><defs
     id="defs1"><linearGradient
       id="swatch4"><stop
         style="stop-color:#3de3d8;stop-opacity:1;"
         offset="0"
         id="stop4" /></linearGradient></defs><g
     id="layer1"
     transform="translate(-24.308083,-29.410571)"><path
       id="path12"
       style="fill:#d59d00;fill-opacity:1;fill-rule:evenodd;stroke:none;stroke-width:3.28956;stroke-linecap:round;stroke-linejoin:round;stroke-miterlimit:18.9;stroke-opacity:1;paint-order:stroke markers fill"
       d="m 117.8408,29.410571 0.0652,2.692973 c 0,0 5.96499,0.855752 8.52658,2.307656 1.4201,0.804928 2.7087,1.98536 3.52591,3.398447 0.79386,1.372707 1.16232,3.029605 1.15313,4.615311 -0.0219,3.623097 -2.75671,10.514045 -2.75671,10.514045 l -48.619372,0.03673 c 0,0 -1.821293,0.274432 -1.994598,0.997286 -0.10088,0.420269 0.770634,1.042626 0.770634,1.042626 0,0 5.122096,0.204776 7.525039,0.997286 1.689273,0.557197 3.507963,1.236355 4.669123,2.583897 0.705365,0.818608 0.963842,1.969982 1.133282,3.037198 0.336769,2.121028 0.111023,4.323911 -0.271937,6.437071 -1.940102,10.701222 -10.154222,31.006678 -10.154222,31.006678 0,0 -15.95786,-33.914788 -20.127162,-52.04047 -0.489459,-2.127881 -0.76644,-4.355628 -0.543956,-6.527726 0.141177,-1.379341 0.351133,-2.876613 1.178623,-3.989171 1.120534,-1.506565 2.972585,-2.381616 4.714436,-3.082539 2.424929,-0.975767 7.706349,-1.450588 7.706349,-1.450588 l 0.09074,-2.266591 -49.955216,-0.181474 -0.16859,2.564077 c 0,0 4.563912,0.66197 6.73028,1.410921 2.050549,0.708928 4.174044,1.488363 5.835027,2.884234 1.439649,1.209846 2.392005,2.923516 3.333259,4.551548 2.327338,4.025438 5.640942,12.757966 5.640942,12.757966 l 8.333888,20.322644 8.911891,21.732194 11.026833,25.77232 -16.156385,47.40693 c 0,0 -1.998053,3.28638 -3.204363,4.77661 -1.236273,1.52721 -2.454672,3.1633 -4.103894,4.23142 -2.099372,1.35963 -4.607608,2.03361 -7.051891,2.56405 -2.660241,0.57729 -8.141229,0.64174 -8.141229,0.64174 l -0.256311,2.24389 c 0,0 41.869855,0.89158 62.762772,-0.19271 2.337588,-0.12144 4.675538,-0.33455 6.986698,-0.70548 4.68954,-0.75268 9.36483,-1.7069 13.91252,-3.07686 4.38512,-1.32101 8.69058,-2.95998 12.8217,-4.93687 5.19049,-2.48387 10.21105,-5.37092 14.9367,-8.65407 2.84273,-1.975 5.49373,-4.2312 8.01376,-6.60421 1.82699,-1.72044 3.47213,-3.62644 5.12812,-5.51202 2.67417,-3.04493 5.40728,-6.05945 7.75734,-9.36094 2.65215,-3.7259 5.00581,-7.67321 7.1156,-11.73091 2.64859,-5.094 5.12442,-10.31914 6.92439,-15.7711 1.62842,-4.93234 2.75438,-10.04736 3.46218,-15.19312 0.47236,-3.434075 0.66715,-6.923588 0.51282,-10.386538 -0.15187,-3.405492 -0.58327,-6.821922 -1.41095,-10.128755 -0.81252,-3.24625 -1.86655,-6.481782 -3.46218,-9.423254 -1.41238,-2.603634 -3.19376,-5.055647 -5.32079,-7.117051 -2.06031,-1.996765 -4.54724,-3.535896 -7.05186,-4.935468 -2.11379,-1.1812 -4.35736,-2.156994 -6.66655,-2.885604 -2.9336,-0.925656 -5.99824,-1.395734 -9.03939,-1.858603 -5.54146,-0.843472 -11.19734,-1.217358 -16.73296,-1.667342 0,0 2.71737,-6.913702 4.55158,-10.128756 1.10175,-1.93122 2.2701,-3.8813 3.84607,-5.449681 1.34894,-1.342471 2.99904,-2.378107 4.68047,-3.269524 2.06176,-1.093067 6.53908,-2.500314 6.53908,-2.500314 v -2.307652 z m 15.48636,29.46401 c 0,0 5.12662,0.301324 7.62844,0.834397 3.07355,0.654897 6.18421,1.440692 8.9756,2.884206 1.70829,0.883413 3.18544,2.176046 4.61531,3.462183 1.8663,1.678691 3.65668,3.480768 5.12955,5.513444 1.0886,1.502316 1.94641,3.172674 2.69155,4.871705 1.00422,2.289755 1.81419,4.678553 2.37281,7.115626 0.52,2.268564 0.8003,4.598973 0.89671,6.924365 0.1346,3.248909 -0.12363,6.509332 -0.44765,9.744833 -0.30604,3.05531 -0.79742,6.09443 -1.41092,9.10312 -0.57263,2.80824 -1.23036,5.60783 -2.115,8.33391 -0.8378,2.58171 -1.96721,5.06006 -3.01313,7.56468 -1.06938,2.56084 -2.07182,5.15727 -3.33469,7.62842 -1.76117,3.44622 -3.72523,6.7981 -5.89733,10.00125 -1.54733,2.28181 -3.25313,4.46057 -5.06439,6.53905 -2.76984,3.17849 -5.74709,6.1815 -8.84671,9.03936 -1.69607,1.56378 -3.49576,3.01475 -5.32218,4.42408 -2.70402,2.08654 -5.3996,4.21316 -8.33391,5.96107 -2.43033,1.44771 -5.0122,2.64264 -7.62842,3.71861 -2.46237,1.01269 -4.99482,1.86797 -7.5647,2.56404 -2.56871,0.69577 -5.17618,1.30892 -7.821073,1.60361 -4.312288,0.48047 -8.685076,0.54596 -13.01436,0.25631 -2.653553,-0.17763 -5.321827,-0.50854 -7.884862,-1.21826 -1.801529,-0.49886 -5.19326,-2.11642 -5.19326,-2.11642 l 10.00123,-31.92466 8.654072,20.25748 2.500314,-0.25631 z m -6.82522,0.650236 -29.465428,76.972743 -6.527726,-16.77263 19.311184,-56.936263 c 0,0 3.85287,-1.704432 5.89309,-2.175909 3.52172,-0.813838 10.78888,-1.087941 10.78888,-1.087941 z" /></g></svg>
