<?xml version="1.0" encoding="UTF-8" standalone="no"?>
<!-- Created with Inkscape (http://www.inkscape.org/) -->

<svg
   width="1080"
   height="1080"
   viewBox="0 0 285.75 285.74999"
   version="1.1"
   id="svg1"
   xml:space="preserve"
   inkscape:version="1.4.2 (f4327f4, 2025-05-13)"
   sodipodi:docname="sartoria-viorel-logo-button.svg"
   xmlns:inkscape="http://www.inkscape.org/namespaces/inkscape"
   xmlns:sodipodi="http://sodipodi.sourceforge.net/DTD/sodipodi-0.dtd"
   xmlns:xlink="http://www.w3.org/1999/xlink"
   xmlns="http://www.w3.org/2000/svg"
   xmlns:svg="http://www.w3.org/2000/svg"><sodipodi:namedview
     id="namedview1"
     pagecolor="#ffffff"
     bordercolor="#000000"
     borderopacity="0.25"
     inkscape:showpageshadow="2"
     inkscape:pageopacity="0.0"
     inkscape:pagecheckerboard="0"
     inkscape:deskcolor="#d1d1d1"
     inkscape:document-units="mm"
     inkscape:export-bgcolor="#ffffff00"
     showgrid="true"
     inkscape:zoom="0.97386897"
     inkscape:cx="307.02282"
     inkscape:cy="422.54144"
     inkscape:window-width="1920"
     inkscape:window-height="991"
     inkscape:window-x="-9"
     inkscape:window-y="-9"
     inkscape:window-maximized="1"
     inkscape:current-layer="layer1"
     showguides="false"><inkscape:page
       x="0"
       y="0"
       width="285.75"
       height="285.75"
       id="page31"
       margin="0"
       bleed="0"
       inkscape:export-filename="VL.svg"
       inkscape:export-xdpi="96"
       inkscape:export-ydpi="96" /></sodipodi:namedview><defs
     id="defs1"><linearGradient
       id="linearGradient141"
       inkscape:collect="always"><stop
         style="stop-color:#ae8625;stop-opacity:1;"
         offset="0"
         id="stop141" /><stop
         style="stop-color:#f6ec64;stop-opacity:1;"
         offset="0.5"
         id="stop143" /><stop
         style="stop-color:#d2ac47;stop-opacity:1;"
         offset="0.75"
         id="stop144" /><stop
         style="stop-color:#edc967;stop-opacity:1;"
         offset="0.875"
         id="stop145" /></linearGradient><linearGradient
       id="swatch137"
       inkscape:swatch="solid"><stop
         style="stop-color:#ffffff;stop-opacity:0.55360281;"
         offset="0"
         id="stop138" /></linearGradient><linearGradient
       id="swatch115"
       inkscape:swatch="solid"><stop
         style="stop-color:#b0c6cc;stop-opacity:1;"
         offset="0"
         id="stop116" /></linearGradient><linearGradient
       inkscape:collect="always"
       xlink:href="#swatch137"
       id="linearGradient139"
       gradientUnits="userSpaceOnUse"
       x1="317.40149"
       y1="108.65882"
       x2="331.10791"
       y2="108.65882"
       gradientTransform="matrix(1.5812294,0,0,1.5812294,-217.63189,-277.40161)" /><linearGradient
       inkscape:collect="always"
       xlink:href="#swatch137"
       id="linearGradient140"
       gradientUnits="userSpaceOnUse"
       x1="317.40149"
       y1="108.65882"
       x2="331.10791"
       y2="108.65882"
       gradientTransform="matrix(1.5812293,0,0,1.5812294,-313.97623,234.40884)" /><linearGradient
       inkscape:collect="always"
       xlink:href="#linearGradient141"
       id="linearGradient145"
       gradientUnits="userSpaceOnUse"
       x1="248.93425"
       y1="98.435555"
       x2="400.60486"
       y2="98.435555"
       gradientTransform="matrix(1.6227809,0,0,1.6227809,-384.15485,-16.864342)" /><linearGradient
       inkscape:collect="always"
       xlink:href="#linearGradient141"
       id="linearGradient146"
       gradientUnits="userSpaceOnUse"
       x1="248.93425"
       y1="98.435555"
       x2="400.60486"
       y2="98.435555"
       gradientTransform="matrix(1.6227809,0,0,1.6227809,-384.15485,-16.864342)" /><linearGradient
       inkscape:collect="always"
       xlink:href="#linearGradient141"
       id="linearGradient147"
       gradientUnits="userSpaceOnUse"
       x1="248.93425"
       y1="98.435555"
       x2="400.60486"
       y2="98.435555"
       gradientTransform="matrix(1.6227809,0,0,1.6227809,-384.15485,-16.864342)" /><linearGradient
       inkscape:collect="always"
       xlink:href="#linearGradient141"
       id="linearGradient148"
       gradientUnits="userSpaceOnUse"
       x1="248.93425"
       y1="98.435555"
       x2="400.60486"
       y2="98.435555"
       gradientTransform="matrix(1.6227809,0,0,1.6227809,-384.15485,-16.864342)" /><linearGradient
       inkscape:collect="always"
       xlink:href="#linearGradient141"
       id="linearGradient149"
       gradientUnits="userSpaceOnUse"
       x1="248.93425"
       y1="98.435555"
       x2="400.60486"
       y2="98.435555"
       gradientTransform="matrix(1.6227809,0,0,1.6227809,-384.15485,-16.864342)" /><linearGradient
       inkscape:collect="always"
       xlink:href="#linearGradient141"
       id="linearGradient150"
       gradientUnits="userSpaceOnUse"
       x1="248.93425"
       y1="98.435555"
       x2="400.60486"
       y2="98.435555"
       gradientTransform="matrix(1.6227809,0,0,1.6227809,-384.15485,-16.864342)" /><linearGradient
       inkscape:collect="always"
       xlink:href="#linearGradient141"
       id="linearGradient152"
       gradientUnits="userSpaceOnUse"
       x1="248.93425"
       y1="98.435555"
       x2="400.60486"
       y2="98.435555"
       gradientTransform="matrix(1.5812293,0,0,1.5812294,-313.97623,234.40884)" /><linearGradient
       inkscape:collect="always"
       xlink:href="#linearGradient141"
       id="linearGradient154"
       gradientUnits="userSpaceOnUse"
       x1="248.93425"
       y1="98.435555"
       x2="400.60486"
       y2="98.435555"
       gradientTransform="matrix(1.6227809,0,0,1.6227809,-384.15485,-16.864342)" /><linearGradient
       inkscape:collect="always"
       xlink:href="#linearGradient141"
       id="linearGradient155"
       gradientUnits="userSpaceOnUse"
       x1="248.93425"
       y1="98.435555"
       x2="400.60486"
       y2="98.435555"
       gradientTransform="matrix(1.6227809,0,0,1.6227809,-384.15485,-16.864342)" /></defs><g
     inkscape:label="Layer 1"
     inkscape:groupmode="layer"
     id="layer1"><path
       d="m 142.16481,115.30613 a 43.838016,43.838016 0 0 0 -43.83777,43.83852 43.838016,43.838016 0 0 0 43.83777,43.83775 43.838016,43.838016 0 0 0 43.8385,-43.83775 43.838016,43.838016 0 0 0 -43.8385,-43.83852 z m -12.32022,23.3619 a 8.9297931,8.9297931 0 0 1 8.93012,8.93013 8.9297931,8.9297931 0 0 1 -8.93012,8.92937 8.9297931,8.9297931 0 0 1 -8.92936,-8.92937 8.9297931,8.9297931 0 0 1 8.92936,-8.93013 z m 24.63968,0 a 8.9297931,8.9297931 0 0 1 8.93011,8.93013 8.9297931,8.9297931 0 0 1 -8.93011,8.92937 8.9297931,8.9297931 0 0 1 -8.92934,-8.92937 8.9297931,8.9297931 0 0 1 8.92934,-8.93013 z m -24.63968,23.09301 a 8.9297931,8.9297931 0 0 1 8.93012,8.9301 8.9297931,8.9297931 0 0 1 -8.93012,8.92935 8.9297931,8.9297931 0 0 1 -8.92936,-8.92935 8.9297931,8.9297931 0 0 1 8.92936,-8.9301 z m 24.63968,0 a 8.9297931,8.9297931 0 0 1 8.93011,8.9301 8.9297931,8.9297931 0 0 1 -8.93011,8.92935 8.9297931,8.9297931 0 0 1 -8.92934,-8.92935 8.9297931,8.9297931 0 0 1 8.92934,-8.9301 z"
       style="mix-blend-mode:multiply;fill:url(#linearGradient145);fill-opacity:1;fill-rule:evenodd;stroke:none;stroke-width:3.51068;stroke-linecap:round;stroke-linejoin:round;stroke-opacity:1;paint-order:stroke markers fill"
       id="path91" /><path
       id="path92"
       style="mix-blend-mode:multiply;fill:url(#linearGradient146);fill-opacity:1;fill-rule:evenodd;stroke:none;stroke-width:3.58678;stroke-linecap:round;stroke-linejoin:round;stroke-opacity:1;paint-order:stroke markers fill"
       d="m 142.16518,100.67605 a 58.468041,58.468041 0 0 0 -58.467818,58.46862 58.468041,58.468041 0 0 0 58.467818,58.46782 58.468041,58.468041 0 0 0 58.46784,-58.46782 58.468041,58.468041 0 0 0 -58.46784,-58.46862 z m 0,8.93321 a 49.535428,49.535428 0 0 1 49.53541,49.53541 49.535428,49.535428 0 0 1 -49.53541,49.53538 49.535428,49.535428 0 0 1 -49.535382,-49.53538 49.535428,49.535428 0 0 1 49.535382,-49.53541 z" /><path
       d="m 101.88749,201.4455 c -1.49624,-1.42956 -2.912084,-2.97245 -4.365203,-4.57355 -39.812576,43.32845 -79.961523,87.15075 -77.613131,85.2479 3.595287,-2.91324 39.887289,-38.80982 81.978334,-80.67435 z"
       style="mix-blend-mode:multiply;fill:url(#linearGradient147);fill-opacity:1;fill-rule:evenodd;stroke:none;stroke-width:10.2831;stroke-linecap:round;stroke-linejoin:round;stroke-opacity:1;paint-order:stroke markers fill"
       id="path93"
       sodipodi:nodetypes="ccsc" /><path
       d="m 259.15359,23.687065 c -5.49721,-0.394949 -15.20816,6.360711 -18.44007,10.076764 -22.73213,24.976992 -43.53907,51.907224 -66.81059,76.318971 3.03863,2.13637 5.75247,4.11147 8.36085,6.77494 32.0013,-31.971253 56.04205,-55.06628 57.39312,-56.509779 l 15.06115,-16.092075 c 3.98857,-4.2615 11.21917,-15.527816 6.98806,-19.548635 -0.66111,-0.628252 -1.53452,-0.947047 -2.55252,-1.020186 z m -5.66195,7.20446 c 0.97643,0.03909 1.64475,0.450376 1.96679,1.210375 1.35459,3.195725 -3.59501,11.692846 -11.05514,18.978687 -7.46064,7.28645 -14.60674,10.602006 -15.96052,7.405166 -1.3546,-3.195723 3.59499,-11.692843 11.05514,-18.978685 5.46365,-5.335973 10.98678,-8.736418 13.99373,-8.615543 z"
       style="mix-blend-mode:multiply;fill:url(#linearGradient148);fill-opacity:1;fill-rule:evenodd;stroke:none;stroke-width:10.2831;stroke-linecap:round;stroke-linejoin:round;stroke-opacity:1;paint-order:stroke markers fill"
       id="path94"
       sodipodi:nodetypes="ssccccssccscsc" /><path
       d="m 188.09663,195.1883 c -1.19637,1.54422 -2.64719,3.30496 -4.1689,4.73605 41.69563,41.51952 83.76219,83.41763 81.95512,80.99478 -2.76656,-3.70932 -37.64477,-41.99344 -77.78622,-85.73083 z"
       style="mix-blend-mode:multiply;fill:url(#linearGradient149);fill-opacity:1;fill-rule:evenodd;stroke:none;stroke-width:10.2831;stroke-linecap:round;stroke-linejoin:round;stroke-opacity:1;paint-order:stroke markers fill"
       id="path95"
       sodipodi:nodetypes="ccsc" /><path
       d="m 21.548294,28.322847 c -0.615261,5.476912 5.745196,15.451193 9.32854,18.829642 23.843633,22.913108 49.359607,46.086719 72.801796,68.331551 3.03984,-2.71885 5.90098,-4.77776 8.84982,-6.53812 C 81.867336,75.687197 58.785258,50.683141 57.397131,49.275239 L 41.922519,33.580359 c -4.097992,-4.1564 -15.065021,-11.833353 -19.252413,-7.767043 -0.654289,0.635365 -1.007876,1.495285 -1.121812,2.509531 z m 6.971402,5.946558 c 0.07822,-0.974097 0.516028,-1.625378 1.288342,-1.916647 3.247525,-1.225229 11.539141,4.061418 18.519679,11.80796 6.981122,7.747062 10.007203,15.020457 6.758639,16.244866 C 51.838847,61.630841 43.547231,56.344197 36.566661,48.597638 31.454284,42.924244 28.278242,37.269079 28.519696,34.269405 Z"
       style="mix-blend-mode:multiply;fill:url(#linearGradient150);fill-opacity:1;fill-rule:evenodd;stroke:none;stroke-width:10.2831;stroke-linecap:round;stroke-linejoin:round;stroke-opacity:1;paint-order:stroke markers fill"
       id="path96"
       sodipodi:nodetypes="scccccssccscsc" /><rect
       style="mix-blend-mode:normal;fill:#ebda5c;fill-opacity:1;fill-rule:evenodd;stroke:url(#linearGradient139);stroke-width:1.39831;stroke-linecap:round;stroke-linejoin:round;stroke-dasharray:0.139831, 0.139831;stroke-dashoffset:0;stroke-opacity:1;paint-order:stroke fill markers"
       id="rect96"
       width="27.131258"
       height="4.0590572"
       x="-52.552078"
       y="211.84398"
       ry="2.0295286"
       transform="matrix(0.69412153,-0.71985783,0.79124584,0.61149818,0,0)" /><rect
       style="mix-blend-mode:normal;fill:url(#linearGradient152);fill-opacity:1;fill-rule:evenodd;stroke:url(#linearGradient140);stroke-width:1.39831;stroke-linecap:round;stroke-linejoin:round;stroke-dasharray:0.139831, 0.139831;stroke-dashoffset:0;stroke-opacity:1;paint-order:stroke fill markers"
       id="rect97"
       width="27.131256"
       height="4.0590572"
       x="195.15685"
       y="25.223333"
       ry="2.0295286"
       transform="matrix(0.75541255,0.65524947,-0.56898138,0.8223504,0,0)" /><path
       d="m 146.01351,4.0429196 c 1.27833,0.8336745 2.01715,1.5366145 2.83401,2.8340084 0.38382,2.0204011 0.0586,3.669726 -1.07962,5.398111 -0.35626,0.237518 -0.71255,0.475033 -1.07962,0.719747 0.50804,1.66917 1.19562,3.186119 2.00181,4.727565 0.12496,0.242059 0.25006,0.484116 0.37889,0.73351 0.40446,0.782042 0.8112,1.562895 1.21804,2.343693 0.28062,0.541019 0.56113,1.082088 0.84153,1.623213 0.67891,1.309034 1.35974,2.617042 2.04156,3.924567 0.31102,0.596659 0.62144,1.193617 0.93181,1.790628 2.25987,4.346192 4.60536,8.643282 6.98132,12.927 0.23753,0 0.47504,0 0.71975,0 0.65098,-0.698476 1.26171,-1.400121 1.86685,-2.136751 0.17808,-0.213743 0.35605,-0.427483 0.53946,-0.647706 1.3948,-1.682319 2.74563,-3.395628 4.07143,-5.132771 0.47182,-0.607686 0.94416,-1.214981 1.41701,-1.821862 0.21106,-0.271383 0.42215,-0.542764 0.63962,-0.822369 0.1527,-0.19623 0.30524,-0.39246 0.46249,-0.594637 -0.37132,-0.799799 -0.73264,-1.455208 -1.29469,-2.139562 -0.90622,-1.327761 -0.72619,-2.794955 -0.50468,-4.338167 0.74239,-1.484774 1.34658,-2.270936 2.87899,-2.878997 1.56827,-0.225047 3.22171,-0.364811 4.67132,0.352849 1.2461,0.999947 2.01201,2.083471 2.31248,3.646535 0.0854,2.004204 -0.32215,3.034647 -1.65738,4.525136 -0.79842,0.581931 -1.47785,0.700064 -2.44743,0.832206 0.11311,0.440242 0.2264,0.880483 0.34298,1.334067 0.81642,3.202795 1.601,6.408926 2.28861,9.642095 0.0615,0.285674 0.123,0.571349 0.1866,0.865681 0.26016,1.246591 0.42067,2.353397 0.42067,3.632742 3.79035,-1.794828 7.41798,-3.810813 11.02995,-5.940734 2.51526,-1.483177 5.04631,-2.933157 7.59352,-4.360659 3.79403,-2.130009 7.52948,-4.350663 11.24609,-6.612687 -0.23381,-0.389211 -0.46761,-0.778426 -0.70853,-1.17943 -0.80321,-1.337125 -0.96002,-2.284241 -0.73096,-3.858804 0.87632,-1.71896 1.87976,-2.722415 3.59873,-3.598743 1.87978,-0.234972 3.08959,0.05576 4.67836,1.079622 1.09674,1.215296 1.75111,2.02692 1.91185,3.666217 -0.16347,1.993652 -0.81164,3.253629 -2.36168,4.588394 -1.66941,0.644987 -3.23998,0.591925 -4.94829,0.02251 -0.11959,0.406377 -0.23937,0.812753 -0.36269,1.231444 -0.84608,2.533348 -2.01779,4.927436 -3.14503,7.344671 -0.69601,1.492809 -1.38632,2.98826 -2.07735,4.483375 -0.13875,0.299708 -0.2774,0.599415 -0.4203,0.908197 -1.20539,2.607455 -2.38445,5.225856 -3.55378,7.849679 -1.67534,3.752797 -3.36633,7.498168 -5.07187,11.237344 -0.26127,0.572965 -0.52223,1.146058 -0.78294,1.719282 -0.3624,0.796588 -0.72586,1.592677 -1.08962,2.388625 -0.10937,0.240493 -0.21846,0.480986 -0.331,0.728767 -0.758,1.653539 -0.758,1.653539 -1.15912,2.054635 -0.50648,0.03473 -1.01472,0.04453 -1.52241,0.04427 -0.3304,7.2e-4 -0.66083,0.0015 -1.00126,0.0021 -0.36718,-0.0011 -0.73442,-0.0021 -1.11275,-0.0032 -0.38681,3.1e-4 -0.77361,7.2e-4 -1.17215,0.0011 -1.30686,7.19e-4 -2.6137,-0.0015 -3.92058,-0.0032 -0.93248,-1.06e-4 -1.86503,-4.6e-5 -2.79757,1.59e-4 -2.01316,1.86e-4 -4.02635,-0.0011 -6.03954,-0.0029 -2.91075,-0.0029 -5.82152,-0.0037 -8.73227,-0.0044 -4.72203,-7.19e-4 -9.44409,-0.0032 -14.16611,-0.0065 -4.58817,-0.0032 -9.17632,-0.0058 -13.76449,-0.0071 -0.28261,-9.2e-5 -0.56522,-1.87e-4 -0.85639,-2.84e-4 -1.41775,-3.59e-4 -2.83549,-0.0011 -4.25323,-0.0015 -11.76938,-0.0037 -23.53875,-0.0099 -35.308127,-0.01811 -0.348151,-0.694374 -0.696059,-1.388731 -1.043886,-2.08314 -0.193776,-0.386655 -0.38752,-0.773315 -0.587203,-1.171688 C 94.499533,64.80284 93.988536,63.718214 93.50003,62.618361 93.329346,62.235617 93.158597,61.85287 92.982704,61.458524 92.80264,61.052644 92.622706,60.64676 92.437255,60.228576 92.238724,59.783155 92.040046,59.337795 91.841223,58.892487 91.406789,57.919393 90.972695,56.946148 90.538779,55.972819 89.777225,54.265514 89.013057,52.559367 88.248094,50.853575 88.112917,50.551488 87.977301,50.2494 87.837774,49.938156 87.145626,48.395347 86.450783,46.85383 85.751056,45.314447 85.475119,44.706877 85.199279,44.099265 84.923487,43.491621 84.788634,43.19487 84.654089,42.89812 84.515309,42.592378 83.767012,40.935397 83.043122,39.27121 82.348036,37.591232 81.950877,36.634248 81.542553,35.682251 81.132606,34.730685 80.861747,34.088997 80.60762,33.440326 80.35406,32.791605 79.874383,31.688568 79.470635,30.809284 78.672081,29.909187 77.606238,29.58097 76.759,29.528483 75.647704,29.582786 c -1.37607,-0.0493 -2.041783,-0.709214 -3.006332,-1.627602 -1.012631,-1.280144 -0.947071,-2.780353 -0.933407,-4.339575 0.208608,-1.490308 0.822263,-2.059846 1.925868,-3.063148 1.528237,-0.911892 2.938807,-0.964376 4.67838,-0.719747 1.577164,0.788579 2.579118,1.58947 3.238859,3.238866 0.358943,2.353016 -0.11684,3.815262 -1.439487,5.757987 0.260553,0.09823 0.521139,0.196461 0.789596,0.297667 0.980354,0.409783 1.856396,0.878411 2.771191,1.417355 0.339242,0.198956 0.678468,0.397912 1.02795,0.602894 0.3636,0.214846 0.727168,0.429686 1.101771,0.651041 0.783917,0.460169 1.567866,0.92032 2.351848,1.380455 0.399463,0.235082 0.798943,0.470163 1.210513,0.712371 1.80205,1.060096 3.606566,2.115988 5.411991,3.170332 0.345765,0.201971 0.691499,0.403942 1.047732,0.612033 4.461333,2.600834 8.949553,5.154978 13.437173,7.710054 0.0372,-0.41658 0.0743,-0.833163 0.11263,-1.262367 0.25946,-2.332428 0.72466,-4.627088 1.17734,-6.927928 0.15076,-0.767131 0.29939,-1.534665 0.44769,-2.302281 0.72972,-3.746654 0.72972,-3.746654 1.14151,-4.982006 -0.38969,-0.0334 -0.38969,-0.0334 -0.78722,-0.06747 -1.32814,-0.383679 -1.91029,-1.065375 -2.81152,-2.09177 -0.70982,-1.419639 -0.5189,-3.130764 -0.35988,-4.67836 0.84993,-1.56908 1.91734,-2.307956 3.59874,-2.878994 1.71242,-0.104539 3.11144,0.114488 4.47592,1.192084 1.22898,1.288934 1.59021,1.848115 1.75439,3.621231 -0.12203,1.41592 -0.50817,2.232805 -1.19208,3.463787 -0.34434,0.672618 -0.34434,0.672618 -0.35987,1.439497 0.56192,0.835737 0.56192,0.835737 1.39452,1.641923 1.20458,1.271723 2.36031,2.552825 3.46378,3.913633 0.26396,0.325193 0.52791,0.650388 0.79989,0.985437 0.57318,0.710842 1.14573,1.422199 1.71782,2.133939 0.43491,0.537892 0.43491,0.537892 0.87859,1.086653 0.26304,0.327512 0.52608,0.655028 0.79708,0.992462 0.60236,0.787596 0.60236,0.787596 1.38467,1.121796 0.0992,-0.258423 0.19866,-0.516844 0.301,-0.783097 0.40872,-0.991944 0.86612,-1.929912 1.3606,-2.881713 0.27962,-0.538804 0.27962,-0.538804 0.56492,-1.088497 0.2005,-0.3835 0.40096,-0.767001 0.60749,-1.16212 0.20927,-0.401364 0.41855,-0.802725 0.63417,-1.216245 1.49065,-2.848883 3.01357,-5.678565 4.56098,-8.49693 1.57104,-2.862595 3.1161,-5.738693 4.65641,-8.617911 0.12171,-0.227794 0.24376,-0.455586 0.36933,-0.690284 0.68702,-1.284153 1.3736,-2.568537 2.05981,-3.853126 -0.22501,-0.104377 -0.44998,-0.208754 -0.68178,-0.316298 -1.27628,-0.679799 -1.74879,-1.577526 -2.19721,-2.9227789 -0.13972,-1.7023458 -0.1732,-2.5390792 0.60729,-4.0710753 1.8212,-2.1165428 3.60193,-2.6043345 6.2753,-1.6419248 z"
       fill="#d1d1d1"
       id="path97"
       style="mix-blend-mode:multiply;fill:url(#linearGradient154);fill-opacity:1;fill-rule:evenodd;stroke:none;stroke-width:0.359873;stroke-opacity:1" /><path
       d="m 98.497222,71.425029 c 30.402168,0 60.804338,0 92.127768,0 -0.32267,1.290606 -0.73166,2.392932 -1.24831,3.614201 -0.17591,0.41589 -0.35164,0.831774 -0.53277,1.260265 -0.18419,0.432586 -0.36834,0.865174 -0.55809,1.310871 -0.18419,0.43676 -0.36834,0.873523 -0.55809,1.323521 -1.37468,3.240813 -1.37468,3.240813 -1.78112,3.647237 -1.06915,0.03528 -2.12993,0.04677 -3.19921,0.04328 -0.5097,4.68e-4 -0.5097,4.68e-4 -1.02966,9.34e-4 -1.14769,6.12e-4 -2.2954,-0.0014 -3.44313,-0.0034 -0.81905,-9.9e-5 -1.63812,-4.5e-5 -2.45719,1.56e-4 -2.23127,1.06e-4 -4.46256,-0.0021 -6.69384,-0.0045 -2.32898,-0.0021 -4.65793,-0.0023 -6.98688,-0.0029 -3.91153,-0.001 -7.82304,-0.0032 -11.73459,-0.0065 -4.02959,-0.0032 -8.0592,-0.0058 -12.08882,-0.0071 -0.24822,-9.6e-5 -0.49643,-1.88e-4 -0.75216,-2.86e-4 -1.24519,-4.67e-4 -2.49035,-9.34e-4 -3.73553,-0.0014 -10.33663,-0.0037 -20.67326,-0.0099 -31.00988,-0.01811 -0.65637,-1.452678 -1.30709,-2.907819 -1.9568,-4.363473 -0.27868,-0.616524 -0.27868,-0.616524 -0.56302,-1.245502 -0.26617,-0.598433 -0.26617,-0.598433 -0.537697,-1.208953 -0.245932,-0.548417 -0.245932,-0.548417 -0.496846,-1.107913 -0.404235,-1.071011 -0.404235,-1.071011 -0.764135,-3.230255 z"
       fill="#b8b8b8"
       id="path98"
       style="mix-blend-mode:multiply;fill:url(#linearGradient155);fill-opacity:1;fill-rule:evenodd;stroke:none;stroke-width:0.359873;stroke-opacity:1" /></g></svg>
